#!OML:ASF H:\MichaelJackson\Top Level 1\Subject 1\Session 1\male.ASF
:FULLY-SPECIFIED
:DEGREES
715
root 5.57371 16.0633 7.46152 -5.17051 1.93546 -7.07264
lowerback 3.35489 3.65296 -0.1267
upperback -0.521209 4.94138 2.74504
thorax -2.66725 2.4916 2.60813
lowerneck -6.45553 -4.75289 0.416533
upperneck 6.85105 -6.53543 1.55768
head 3.38698 -3.16523 0.112936
rclavicle 4.74847e-014 2.18663e-014
rhumerus -44.2526 2.56756 -76.3032
rradius 80.1525
rwrist -28.8292
rhand 9.62588 -11.5405
rfingers 7.12502
rthumb 34.7714 -38.1497
lclavicle 4.74847e-014 2.18663e-014
lhumerus -62.7526 -2.84119 82.9426
lradius 56.2372
lwrist 26.3833
lhand -6.21553 7.5727
lfingers 7.12502
lthumb 19.6252 36.6021
rfemur -29.9215 -21.6272 19.8808
rtibia 107.199
rfoot 37.6932 15.2028
rtoes 1.43858
lfemur -35.1715 9.23167 -16.6107
ltibia 37.7882
lfoot 3.50751 -11.3957
ltoes 25.2375
716
root 5.57429 16.0607 7.58311 -5.84547 2.37675 -6.72309
lowerback 4.21637 3.33734 -0.41025
upperback -0.315756 4.51146 2.7158
thorax -2.93717 2.2798 2.717
lowerneck -6.56866 -4.5946 0.474618
upperneck 6.78318 -6.32055 1.46131
head 3.37796 -3.06116 0.0805166
rclavicle 5.50882e-014 2.26615e-014
rhumerus -44.9688 1.54311 -74.787
rradius 79.6401
rwrist -26.2389
rhand 4.54433 -12.0795
rfingers 7.12502
rthumb 29.9352 -39.6785
lclavicle 5.50882e-014 2.26615e-014
lhumerus -61.9858 -3.85691 83.0466
lradius 56.478
lwrist 25.7271
lhand -4.7573 7.78442
lfingers 7.12502
lthumb 21.0266 36.6645
rfemur -34.5093 -20.9314 19.4592
rtibia 111.695
rfoot 36.9203 16.9238
rtoes -1.23018
lfemur -34.4585 8.88361 -16.9725
ltibia 38.6341
lfoot 2.63901 -11.4369
ltoes 24.4102
717
root 5.56783 16.0567 7.69923 -6.60299 2.83946 -6.32261
lowerback 5.1746 3.022 -0.795459
upperback -0.0536076 4.06943 2.67172
thorax -3.20435 2.0634 2.87531
lowerneck -6.66507 -4.42698 0.54099
upperneck 6.63343 -6.09503 1.40045
head 3.33872 -2.95118 0.0604532
rclavicle 3.28243e-014 1.82882e-014
rhumerus -45.7399 0.621238 -73.3354
rradius 79.0205
rwrist -22.2867
rhand -1.5308 -12.7839
rfingers 7.12502
rthumb 24.1233 -41.2872
lclavicle 3.28243e-014 1.82882e-014
lhumerus -61.0721 -4.90023 83.092
lradius 56.5741
lwrist 24.732
lhand -3.39876 7.78657
lfingers 7.12502
lthumb 22.3312 36.5161
rfemur -39.1164 -19.753 19.0001
rtibia 115.465
rfoot 36.0014 18.0996
rtoes -2.75082
lfemur -33.6092 8.52411 -17.3532
ltibia 39.3931
lfoot 1.75876 -11.4519
ltoes 23.4176
718
root 5.55424 16.0511 7.81046 -7.45516 3.31854 -5.86159
lowerback 6.23009 2.71752 -1.29915
upperback 0.271096 3.6241 2.61141
thorax -3.46173 1.8469 3.09249
lowerneck -6.73528 -4.25082 0.621431
upperneck 6.41475 -5.85986 1.36404
head 3.27139 -2.83601 0.048032
rclavicle 4.16578e-014 6.75868e-015
rhumerus -46.5461 -0.198399 -71.954
rradius 78.2624
rwrist -16.8959
rhand -8.0408 -13.9427
rfingers 7.12502
rthumb 17.8696 -43.1417
lclavicle 4.16578e-014 6.75868e-015
lhumerus -60.0181 -5.95977 83.0733
lradius 56.5464
lwrist 23.5061
lhand -2.27231 7.61982
lfingers 7.12502
lthumb 23.4122 36.2156
rfemur -43.6533 -18.0072 18.4036
rtibia 118.367
rfoot 35.2763 18.7007
rtoes -2.54867
lfemur -32.6108 8.21733 -17.7716
ltibia 40.0596
lfoot 0.919464 -11.4927
ltoes 22.5348
719
root 5.53384 16.0456 7.91804 -8.43866 3.86984 -5.41396
lowerback 7.41879 2.40247 -1.84185
upperback 0.656841 3.1487 2.54616
thorax -3.72182 1.61566 3.33902
lowerneck -6.79067 -4.06336 0.718901
upperneck 6.16696 -5.61222 1.34721
head 3.19178 -2.71387 0.0402388
rclavicle -3.77318e-014 8.34896e-015
rhumerus -47.3662 -0.947407 -70.6304
rradius 77.3318
rwrist -10.0329
rhand -14.184 -15.9553
rfingers 7.12502
rthumb 11.9517 -45.5941
lclavicle -3.77318e-014 8.34896e-015
lhumerus -58.8452 -7.01851 82.9731
lradius 56.4281
lwrist 22.1854
lhand -1.41343 7.33828
lfingers 7.12502
lthumb 24.2359 35.8267
rfemur -47.9375 -15.7393 17.6077
rtibia 120.265
rfoot 34.8488 18.7116
rtoes -1.54305
lfemur -31.4322 7.96088 -18.1603
ltibia 40.6284
lfoot 0.14368 -11.6171
ltoes 21.8809
720
root 5.50765 16.0423 8.02304 -9.54682 4.53254 -5.04746
lowerback 8.72498 2.06122 -2.35144
upperback 1.09232 2.62696 2.48722
thorax -3.98035 1.36053 3.59172
lowerneck -6.83348 -3.86746 0.82739
upperneck 5.91975 -5.35595 1.35031
head 3.11086 -2.58652 0.0374246
rclavicle -2.57923e-014 -1.43125e-014
rhumerus -48.1904 -1.69435 -69.3155
rradius 76.229
rwrist -1.81867
rhand -19.2017 -19.0441
rfingers 7.12502
rthumb 7.11046 -48.9046
lclavicle -2.57923e-014 -1.43125e-014
lhumerus -57.5715 -8.0755 82.7942
lradius 56.255
lwrist 20.93
lhand -0.878788 7.03825
lfingers 7.12502
lthumb 24.7484 35.4573
rfemur -51.8241 -13.0875 16.5741
rtibia 121.054
rfoot 34.4491 18.3301
rtoes -0.22385
lfemur -30.091 7.74785 -18.4624
ltibia 41.0943
lfoot -0.550114 -11.8755
ltoes 21.5175
721
root 5.47766 16.0429 8.12603 -10.7429 5.29666 -4.83658
lowerback 10.1142 1.68366 -2.72943
upperback 1.55313 2.05747 2.44237
thorax -4.23803 1.07977 3.80735
lowerneck -6.87064 -3.66381 0.955282
upperneck 5.70048 -5.09236 1.3604
head 3.03866 -2.45464 0.0333484
rclavicle -6.70898e-016 -5.76476e-015
rhumerus -49.0196 -2.51494 -67.9512
rradius 75.0089
rwrist 7.46739
rhand -22.5165 -23.0361
rfingers 7.12502
rthumb 3.90997 -52.98
lclavicle -6.70898e-016 -5.76476e-015
lhumerus -56.2204 -9.12586 82.5334
lradius 56.0638
lwrist 19.8684
lhand -0.636617 6.83792
lfingers 7.12502
lthumb 24.9805 35.2249
rfemur -55.2089 -10.2096 15.331
rtibia 120.664
rfoot 33.7345 17.6283
rtoes 1.21556
lfemur -28.6334 7.56936 -18.6073
ltibia 41.4518
lfoot -1.1381 -12.2572
ltoes 21.6065
722
root 5.44625 16.0491 8.22705 -11.9652 6.15364 -4.82984
lowerback 11.5172 1.25754 -2.9086
upperback 2.01651 1.43929 2.41946
thorax -4.47971 0.772411 3.95969
lowerneck -6.90473 -3.45539 1.10118
upperneck 5.51145 -4.82474 1.36896
head 2.97626 -2.32021 0.0252881
rclavicle -2.78299e-014 1.25234e-014
rhumerus -49.8644 -3.45733 -66.4963
rradius 73.8019
rwrist 17.2374
rhand -23.8481 -27.4558
rfingers 7.12502
rthumb 2.62403 -57.4194
lclavicle -2.78299e-014 1.25234e-014
lhumerus -54.7993 -10.1607 82.2036
lradius 55.8804
lwrist 19.0781
lhand -0.63773 6.7929
lfingers 7.12502
lthumb 24.9794 35.18
rfemur -58.0503 -7.30225 13.9331
rtibia 119.069
rfoot 32.3963 16.5696
rtoes 2.35866
lfemur -27.1355 7.3955 -18.5572
ltibia 41.693
lfoot -1.61393 -12.7664
ltoes 21.9922
723
root 5.4154 16.0619 8.3258 -13.137 7.06934 -5.03407
lowerback 12.8663 0.779661 -2.85358
upperback 2.44891 0.782963 2.40988
thorax -4.70817 0.444132 4.01908
lowerneck -6.93309 -3.24933 1.26464
upperneck 5.35212 -4.56269 1.3784
head 2.92306 -2.18795 0.0137616
rclavicle 2.49537e-014 1.59028e-015
rhumerus -50.7611 -4.5296 -64.9713
rradius 72.7494
rwrist 26.692
rhand -23.5186 -31.2644
rfingers 7.12502
rthumb 2.94224 -61.2239
lclavicle 2.49537e-014 1.59028e-015
lhumerus -53.3271 -11.1851 81.8094
lradius 55.7195
lwrist 18.5748
lhand -0.796011 6.95546
lfingers 7.12502
lthumb 24.8277 35.3636
rfemur -60.3767 -4.52527 12.4349
rtibia 116.287
rfoot 30.3629 15.0242
rtoes 3.16794
lfemur -25.6856 7.21713 -18.3151
ltibia 41.8106
lfoot -1.9705 -13.3757
ltoes 22.6212
724
root 5.3867 16.0829 8.42121 -14.1838 8.00057 -5.41735
lowerback 14.0822 0.256012 -2.59036
upperback 2.83772 0.103927 2.41764
thorax -4.90225 0.103153 4.00065
lowerneck -6.964 -3.0477 1.43053
upperneck 5.19847 -4.30659 1.38136
head 2.87263 -2.05889 -0.000868411
rclavicle -1.84497e-014 4.37326e-015
rhumerus -51.7058 -5.67784 -63.432
rradius 71.9551
rwrist 34.9356
rhand -22.1267 -33.8587
rfingers 7.12502
rthumb 4.28646 -63.7954
lclavicle -1.84497e-014 4.37326e-015
lhumerus -51.7842 -12.1601 81.3713
lradius 55.558
lwrist 18.3155
lhand -1.09174 7.23538
lfingers 7.12502
lthumb 24.5443 35.6823
rfemur -62.2282 -1.9602 10.862
rtibia 112.341
rfoot 27.8144 12.8116
rtoes 4.05604
lfemur -24.3611 7.0436 -17.9192
ltibia 41.7893
lfoot -2.20185 -14.0644
ltoes 23.3427
725
root 5.36104 16.1117 8.51207 -15.041 8.90871 -5.912
lowerback 15.1179 -0.294042 -2.17058
upperback 3.16547 -0.573919 2.42866
thorax -5.06447 -0.237677 3.91091
lowerneck -6.99471 -2.85887 1.59469
upperneck 5.03052 -4.06715 1.38322
head 2.81789 -1.93852 -0.016348
rclavicle 1.79341e-014 -6.55989e-015
rhumerus -52.7135 -6.84243 -61.9613
rradius 71.4603
rwrist 41.2731
rhand -20.3566 -35.081
rfingers 7.12502
rthumb 5.99559 -64.9761
lclavicle 1.79341e-014 -6.55989e-015
lhumerus -50.157 -13.0705 80.8941
lradius 55.3676
lwrist 18.1854
lhand -1.42927 7.62979
lfingers 7.12502
lthumb 24.2207 36.1202
rfemur -63.6476 0.350644 9.20097
rtibia 107.281
rfoot 25.0161 10.0163
rtoes 5.1851
lfemur -23.2207 6.89993 -17.4393
ltibia 41.62
lfoot -2.30951 -14.8133
ltoes 24.1094
726
root 5.33881 16.1487 8.59703 -15.6713 9.75967 -6.42961
lowerback 15.9434 -0.843599 -1.68475
upperback 3.436 -1.22797 2.43783
thorax -5.18114 -0.566492 3.78657
lowerneck -7.03203 -2.68365 1.74193
upperneck 4.82216 -3.84355 1.38439
head 2.75158 -1.82703 -0.0297554
rclavicle 5.66536e-015 8.94531e-015
rhumerus -53.7704 -7.96866 -60.6142
rradius 71.2435
rwrist 45.3187
rhand -18.6885 -35.1441
rfingers 7.12502
rthumb 7.60585 -64.9874
lclavicle 5.66536e-015 8.94531e-015
lhumerus -48.4331 -13.8741 80.3935
lradius 55.1151
lwrist 18.0663
lhand -1.74525 8.0163
lfingers 7.12502
lthumb 23.9177 36.5468
rfemur -64.66 2.43519 7.39841
rtibia 101.17
rfoot 22.3835 6.95834
rtoes 8.07834
lfemur -22.2826 6.81502 -16.959
ltibia 41.2982
lfoot -2.29741 -15.5937
ltoes 24.8635
727
root 5.31981 16.1921 8.67558 -16.0632 10.5343 -6.8964
lowerback 16.5765 -1.37118 -1.19796
upperback 3.65015 -1.84387 2.43323
thorax -5.2638 -0.875525 3.64471
lowerneck -7.08674 -2.52389 1.86331
upperneck 4.57122 -3.63826 1.3945
head 2.67532 -1.72547 -0.0367374
rclavicle 2.37253e-014 2.0276e-014
rhumerus -54.8565 -9.02527 -59.4265
rradius 71.2656
rwrist 47.0613
rhand -17.299 -34.4966
rfingers 7.12502
rthumb 8.94684 -64.2869
lclavicle 2.37253e-014 2.0276e-014
lhumerus -46.6221 -14.539 79.8747
lradius 54.7769
lwrist 17.8438
lhand -2.05834 8.28974
lfingers 7.12502
lthumb 23.6174 36.8592
rfemur -65.2856 4.33579 5.40138
rtibia 94.1189
rfoot 19.8834 4.07796
rtoes 12.1902
lfemur -21.5504 6.81314 -16.547
ltibia 40.8466
lfoot -2.18686 -16.3786
ltoes 25.5705
